<svg width="46" height="46" viewBox="0 0 46 46" fill="none" xmlns="http://www.w3.org/2000/svg">
<path d="M23.1949 1.60448C20.3914 1.50221 18.2204 3.43922 15.8695 4.65634C12.6721 6.55172 9.37953 8.30022 6.24577 10.2939C4.19604 11.9599 3.25427 14.6407 3.46953 17.2296C3.48146 21.8197 3.44575 26.4108 3.48756 31.0002C3.75299 33.7791 5.6799 36.1374 8.15944 37.2999C12.1399 39.5844 16.097 41.9114 20.0921 44.1693C22.6317 45.3274 25.6382 44.8403 27.8848 43.2735C31.8536 40.9682 35.847 38.7036 39.8002 36.3726C42.0742 34.7536 43.1537 31.9058 42.9204 29.1772C42.9084 24.587 42.9442 19.996 42.9023 15.4066C42.6366 12.6279 40.7101 10.269 38.2303 9.10705C34.2497 6.82298 30.2919 4.49754 26.297 2.23943C25.3301 1.79029 24.256 1.60744 23.195 1.60439L23.1949 1.60448ZM20.6952 13.1633H25.6954V33.2443H20.6952V13.1633ZM26.9874 17.5341H31.9852V33.2443H26.9874V17.5341ZM14.4039 25.7295H19.4033V33.2443H14.4039V25.7294V25.7295Z" fill="white"/>
</svg>
